<?xml version="1.0" standalone="no"?>
<!DOCTYPE svg PUBLIC "-//W3C//DTD SVG 20010904//EN"
 "http://www.w3.org/TR/2001/REC-SVG-20010904/DTD/svg10.dtd">
<svg version="1.0" xmlns="http://www.w3.org/2000/svg"
 width="876.000000pt" height="876.000000pt" viewBox="0 0 876.000000 876.000000"
 preserveAspectRatio="xMidYMid meet">
<metadata>
Created by potrace 1.14, written by Peter Selinger 2001-2017
</metadata>
<g transform="translate(0.000000,876.000000) scale(0.100000,-0.100000)"
fill="#000000" stroke="none">
<path d="M0 4380 l0 -4380 4380 0 4380 0 0 4380 0 4380 -4380 0 -4380 0 0
-4380z m4784 3938 c-3 -4 30 -7 73 -6 51 1 78 -3 81 -10 2 -7 26 -12 60 -12
35 0 52 -4 44 -9 -9 -5 8 -9 44 -10 32 0 60 -4 63 -8 6 -8 13 -10 49 -16 9 -2
26 -8 37 -14 11 -6 37 -14 58 -18 20 -4 37 -11 37 -15 0 -4 14 -10 30 -14 17
-3 44 -9 62 -12 18 -4 38 -13 45 -20 7 -7 35 -16 61 -19 26 -3 55 -10 64 -16
10 -5 38 -9 62 -9 25 0 51 -6 58 -13 24 -24 58 -38 78 -32 13 4 20 0 25 -14 3
-10 27 -29 53 -41 26 -12 49 -25 52 -29 10 -12 135 -71 151 -71 26 0 109 -31
109 -42 0 -5 5 -6 10 -3 6 3 10 -3 10 -14 0 -22 45 -51 78 -51 11 0 25 -7 32
-15 7 -8 30 -20 52 -25 26 -7 43 -19 50 -36 6 -14 17 -23 24 -20 15 6 79 -37
87 -59 4 -8 15 -15 25 -15 10 0 28 -10 39 -22 28 -31 65 -58 78 -58 7 0 17
-11 25 -24 11 -21 41 -37 75 -40 30 -3 160 -117 148 -130 -3 -3 7 -11 23 -18
16 -7 43 -26 61 -43 17 -16 44 -42 60 -56 15 -14 39 -44 52 -65 12 -22 50 -59
82 -84 32 -25 61 -53 64 -62 4 -10 11 -18 16 -18 5 0 9 -8 9 -17 1 -19 23 -53
35 -53 12 0 70 -52 70 -64 0 -13 63 -76 76 -76 5 0 9 -4 9 -9 0 -4 12 -21 28
-37 15 -16 27 -32 27 -35 0 -13 60 -79 77 -85 10 -3 18 -15 18 -29 0 -13 10
-29 25 -39 14 -9 24 -20 24 -24 -3 -20 3 -32 16 -32 8 0 15 -4 15 -10 0 -5 10
-20 21 -31 14 -14 17 -24 11 -28 -13 -8 -3 -25 19 -33 9 -4 23 -20 30 -37 8
-18 16 -25 20 -19 7 10 63 -85 64 -107 0 -5 3 -13 8 -16 4 -3 10 -16 12 -29 2
-13 10 -27 16 -30 6 -4 10 -9 10 -11 -2 -14 13 -48 19 -44 10 6 22 -24 14 -36
-3 -5 0 -9 6 -9 6 0 8 -4 5 -10 -3 -5 2 -10 12 -10 13 0 14 -3 5 -8 -9 -7 -5
-17 18 -43 16 -19 30 -41 31 -49 2 -34 9 -55 19 -58 5 -2 8 -8 4 -13 -3 -5 0
-9 6 -9 6 0 8 -4 5 -10 -3 -5 -2 -10 2 -10 5 0 10 -11 11 -25 3 -47 5 -55 14
-55 5 0 7 -4 4 -9 -4 -5 -1 -11 6 -13 6 -2 11 -24 11 -51 0 -26 4 -47 9 -47 5
0 6 -4 3 -10 -3 -5 -2 -10 2 -10 5 0 9 -8 10 -18 1 -10 11 -45 22 -78 11 -33
17 -70 14 -82 -3 -12 -1 -22 3 -22 5 0 9 -18 10 -41 0 -22 5 -43 11 -47 5 -4
13 -38 17 -77 4 -38 14 -77 22 -86 8 -8 11 -19 7 -22 -3 -4 -1 -7 6 -7 7 0 9
-4 6 -10 -3 -5 0 -10 7 -11 10 0 10 -2 1 -6 -15 -5 -18 -33 -4 -33 4 0 9 -39
10 -86 1 -48 8 -105 16 -128 9 -26 12 -59 9 -92 -4 -30 -2 -54 4 -57 13 -9 5
-292 -9 -319 -7 -14 -7 -23 2 -34 9 -11 9 -21 0 -40 -6 -14 -11 -42 -10 -62 0
-25 3 -31 7 -19 8 19 7 -67 -2 -238 -7 -121 -9 -135 -18 -150 -7 -11 -24 -154
-20 -168 1 -4 -5 -21 -13 -37 -8 -16 -15 -33 -14 -37 5 -33 -4 -84 -18 -98 -9
-10 -22 -45 -29 -79 -7 -33 -16 -74 -19 -91 -4 -16 -9 -37 -13 -45 -6 -16 -9
-28 -15 -71 -2 -14 -8 -32 -12 -39 -5 -8 -9 -25 -10 -38 0 -13 -5 -26 -10 -30
-12 -9 -18 -30 -17 -59 1 -11 -5 -24 -13 -27 -8 -3 -15 -14 -15 -24 0 -10 -5
-23 -12 -30 -7 -7 -9 -12 -4 -12 4 0 0 -10 -8 -22 -9 -12 -16 -39 -16 -60 0
-38 -15 -89 -29 -98 -14 -9 -102 -178 -100 -192 4 -24 -13 -68 -26 -68 -8 0
-19 -16 -25 -35 -6 -19 -16 -35 -21 -35 -5 0 -9 -9 -9 -20 0 -11 -5 -20 -11
-20 -5 0 -7 -4 -4 -10 3 -5 1 -10 -5 -10 -6 0 -9 -4 -6 -9 3 -5 -1 -11 -9 -15
-8 -3 -15 -15 -15 -26 0 -11 -4 -20 -9 -20 -5 0 -15 -15 -21 -34 -6 -19 -15
-36 -20 -38 -6 -2 -11 -15 -12 -30 -1 -16 -6 -28 -11 -28 -4 0 -6 -4 -3 -9 3
-5 -1 -11 -9 -15 -8 -3 -15 -14 -15 -25 0 -11 -5 -23 -10 -26 -6 -4 -8 -11 -5
-16 4 -5 1 -9 -4 -9 -6 0 -10 -3 -10 -7 3 -21 -2 -33 -12 -27 -8 4 -9 0 -4
-15 4 -14 1 -23 -9 -27 -9 -3 -13 -10 -10 -15 3 -5 -1 -9 -9 -9 -13 0 -42 -50
-37 -66 1 -4 -10 -14 -24 -24 -15 -9 -23 -20 -19 -23 3 -4 -1 -7 -11 -7 -9 0
-14 -4 -11 -10 3 -5 2 -10 -3 -10 -5 0 -12 -14 -15 -30 -4 -17 -11 -30 -17
-30 -6 0 -8 4 -5 10 3 6 -1 7 -9 4 -14 -5 -21 -24 -17 -47 0 -4 -5 -6 -11 -5
-7 2 -12 -3 -10 -9 1 -7 -3 -13 -9 -13 -5 0 -7 -4 -4 -10 3 -5 -1 -10 -10 -10
-10 0 -13 5 -9 12 4 6 3 8 -4 4 -6 -3 -16 -22 -22 -41 -8 -25 -18 -35 -33 -36
-12 0 -17 -3 -10 -6 14 -5 -20 -48 -40 -48 -7 -1 -11 -6 -9 -13 1 -7 -5 -12
-13 -12 -9 0 -12 -6 -8 -17 5 -13 3 -15 -12 -9 -11 4 -16 4 -13 0 8 -8 -16
-34 -32 -34 -6 0 -8 -5 -5 -10 3 -6 -4 -10 -16 -10 -12 0 -19 -3 -16 -7 4 -4
-6 -12 -23 -19 -17 -7 -29 -17 -28 -21 5 -18 -28 -53 -50 -53 -13 0 -20 -4
-17 -10 3 -5 0 -7 -8 -5 -13 6 -97 -77 -97 -96 0 -5 -6 -9 -14 -9 -14 0 -86
-76 -86 -90 0 -8 -49 -25 -62 -22 -5 1 -8 -1 -8 -5 0 -16 -48 -63 -64 -63 -11
0 -14 -5 -10 -12 5 -8 2 -9 -9 -5 -9 3 -23 0 -31 -8 -8 -8 -19 -15 -25 -15 -6
0 -11 -4 -11 -10 0 -5 -6 -10 -13 -10 -7 0 -23 -9 -35 -20 -12 -11 -28 -20
-37 -20 -9 0 -14 -4 -11 -9 3 -5 -4 -12 -17 -16 -12 -4 -25 -8 -29 -10 -5 -1
-13 -3 -20 -4 -6 0 -9 -4 -5 -7 11 -11 -21 -34 -47 -34 -14 0 -26 -4 -26 -8 0
-5 -16 -9 -35 -10 -20 -1 -41 -5 -48 -9 -22 -14 -82 -33 -105 -33 -13 0 -20
-4 -17 -10 4 -6 3 -9 -2 -8 -20 5 -83 -14 -83 -26 0 -8 -16 -17 -35 -20 -19
-4 -64 -20 -99 -37 -43 -20 -73 -28 -86 -24 -16 5 -23 2 -27 -14 -4 -15 -16
-21 -52 -26 -48 -6 -133 -26 -211 -50 -25 -7 -60 -16 -77 -20 -18 -4 -35 -11
-38 -16 -4 -5 -19 -9 -35 -9 -32 0 -100 -29 -100 -42 0 -5 -11 -6 -25 -2 -26
6 -163 -13 -180 -26 -5 -4 -39 -10 -75 -13 -75 -7 -129 -16 -150 -25 -8 -3
-40 -7 -70 -7 -79 -1 -388 -16 -430 -21 -19 -2 -57 -7 -83 -10 -28 -4 -58 -2
-70 4 -44 21 -107 22 -147 1 -37 -19 -90 -18 -90 1 0 5 -16 6 -35 3 -20 -3
-41 -1 -49 6 -8 7 -30 11 -50 9 -20 -1 -41 3 -48 10 -7 7 -32 12 -57 12 -25 0
-51 6 -60 14 -16 14 -30 19 -121 36 -25 5 -70 16 -100 24 -30 9 -64 16 -75 16
-11 0 -42 9 -70 19 -27 11 -84 29 -125 42 -41 12 -85 27 -97 32 -16 7 -27 6
-37 -2 -18 -15 -77 -5 -126 20 -19 11 -40 19 -47 19 -6 0 -29 16 -50 36 -20
20 -51 42 -68 50 -16 8 -52 28 -80 44 -27 16 -56 29 -63 29 -7 1 -36 16 -65
35 -28 19 -69 38 -89 41 -21 4 -38 11 -38 16 0 5 -13 9 -30 9 -29 0 -74 35
-64 51 5 9 -36 35 -50 31 -12 -4 -76 18 -76 26 0 13 -61 72 -70 67 -4 -3 -15
5 -23 18 -8 12 -36 33 -63 47 -27 14 -60 38 -75 53 -19 21 -28 25 -32 15 -5
-10 -8 -10 -19 3 -7 9 -23 19 -36 23 -12 4 -20 12 -17 17 4 5 -2 9 -12 10 -12
1 -10 3 7 8 25 7 25 7 -12 25 -20 9 -46 30 -58 46 -18 23 -26 27 -40 20 -13
-7 -20 -6 -24 5 -3 8 -12 15 -21 15 -8 0 -15 6 -15 14 0 8 -8 17 -17 21 -10 3
-29 21 -43 40 -14 19 -35 38 -47 41 -12 3 -22 9 -21 13 1 3 -4 19 -10 34 -7
16 -12 33 -12 38 0 5 -4 9 -9 9 -4 0 -23 16 -42 35 -19 19 -40 35 -46 35 -7 0
-13 5 -13 10 0 6 -7 10 -16 10 -8 0 -12 5 -9 10 3 6 0 10 -8 10 -12 0 -65 51
-59 58 1 1 2 8 1 15 0 6 -4 3 -9 -8 -8 -19 -9 -19 -9 -1 -1 25 -49 88 -62 81
-5 -4 -6 2 -2 11 4 11 2 15 -4 11 -6 -4 -13 2 -16 13 -3 12 -14 20 -26 20 -12
0 -21 3 -21 8 0 4 -11 19 -24 34 -14 14 -22 28 -19 32 3 3 -6 10 -21 15 -25
10 -29 17 -29 54 0 9 -4 17 -8 17 -5 0 -9 9 -9 20 0 15 -7 20 -26 20 -21 0
-25 4 -21 20 3 10 0 18 -5 17 -6 -1 -12 5 -13 14 -5 26 -53 97 -75 109 -11 6
-20 17 -20 25 0 8 -5 15 -11 15 -5 0 -8 4 -5 9 3 5 -1 11 -9 15 -8 3 -15 14
-15 24 0 11 -8 30 -18 43 -15 21 -35 56 -96 174 -7 14 -16 23 -19 20 -4 -3 -5
-2 -2 1 2 4 -2 19 -10 34 -8 15 -11 30 -8 34 4 3 -1 6 -10 6 -10 0 -16 3 -16
8 3 18 -2 32 -17 46 -9 9 -17 22 -18 29 -2 6 -10 28 -19 47 -8 19 -13 38 -11
42 3 5 1 8 -4 8 -5 0 -15 28 -21 63 -13 69 -31 129 -40 137 -3 3 -11 15 -18
27 -10 17 -10 23 0 27 8 3 4 12 -12 25 -13 12 -24 34 -26 49 -1 16 -4 33 -7
38 -11 17 -18 70 -23 157 -2 49 -8 94 -13 100 -5 7 -8 39 -7 72 2 41 0 52 -5
35 -10 -31 -10 -27 -16 120 -4 117 -4 173 1 240 1 25 -1 50 -6 56 -14 17 -38
134 -28 134 9 0 3 55 -8 73 -7 11 -6 32 6 252 4 77 4 145 0 151 -5 5 -6 27 -2
48 3 23 9 33 13 25 10 -15 44 135 36 157 -5 14 15 91 31 117 3 5 7 26 8 46 4
47 25 141 36 164 6 10 7 22 4 27 -3 5 4 31 15 59 11 28 16 51 11 51 -16 0 -21
30 -9 58 6 15 12 35 14 46 1 10 8 22 15 27 14 8 16 14 18 57 0 13 6 20 11 17
6 -4 10 8 10 29 0 20 4 36 10 36 5 0 12 16 16 37 4 20 13 48 20 62 8 14 14 37
14 51 0 18 3 21 9 11 6 -10 11 -4 16 20 4 19 11 39 16 45 7 9 16 40 18 67 1 5
5 5 11 2 5 -3 10 1 10 9 0 8 7 21 15 29 25 26 73 113 80 148 12 61 26 99 35
94 10 -6 60 56 60 73 0 7 4 12 8 12 4 0 9 10 9 22 1 13 7 24 13 26 6 2 24 29
41 60 16 32 41 75 54 97 14 22 30 57 36 79 6 24 18 40 30 43 10 3 19 10 19 15
0 5 4 7 9 3 11 -6 33 25 80 109 18 33 39 66 47 74 8 7 14 20 14 28 0 8 8 18
17 21 10 4 31 22 47 40 16 18 33 30 38 27 5 -3 13 8 19 25 6 16 27 42 47 57
59 44 112 97 112 114 1 22 22 46 48 54 23 8 112 94 112 109 0 4 8 7 18 7 26 0
84 64 76 85 -8 21 11 35 48 35 35 0 58 9 58 24 0 6 14 20 32 30 65 39 118 90
118 115 0 23 55 81 76 81 8 0 14 5 14 10 0 6 7 10 15 10 8 0 15 4 15 8 0 9 64
41 90 46 8 1 31 12 50 24 19 12 52 27 72 34 21 6 45 19 54 30 10 10 30 18 46
18 15 0 28 5 28 11 0 5 4 8 9 5 13 -8 42 4 35 15 -3 5 2 9 10 9 8 0 21 8 28
18 16 24 51 42 77 42 12 0 21 3 21 8 0 18 94 43 115 30 16 -9 55 10 55 27 0 8
6 15 13 15 7 0 40 14 75 31 34 16 85 35 112 42 28 6 50 15 50 19 0 5 11 8 25
8 14 0 25 5 25 10 0 6 22 10 49 10 27 0 62 5 78 11 15 7 44 11 63 11 28 -1 31
1 15 8 -16 7 -14 9 16 9 19 1 54 10 77 21 22 11 50 20 61 20 10 0 21 5 23 11
2 5 28 11 58 12 30 2 60 5 65 9 6 3 58 5 115 4 81 -1 116 2 154 16 26 10 64
19 85 19 20 0 79 3 131 8 94 7 188 6 265 -4 111 -15 148 -17 154 -6 11 18 91
27 137 17 24 -6 40 -14 38 -18z m3503 -4030 c-3 -7 -5 -2 -5 12 0 14 2 19 5
13 2 -7 2 -19 0 -25z m-7433 -1824 c4 -10 1 -14 -6 -12 -15 5 -23 28 -10 28 5
0 13 -7 16 -16z"/>
<path d="M3190 7386 c-5 -14 -12 -26 -15 -26 -4 0 -4 4 0 9 3 5 1 12 -5 16 -5
3 -10 -2 -11 -12 -4 -107 -9 -123 -38 -123 -10 0 -34 -11 -54 -24 -19 -13 -43
-26 -53 -28 -19 -3 -32 -28 -14 -28 6 0 9 4 6 8 -3 5 2 9 10 9 10 0 11 -4 4
-11 -18 -18 -11 -30 8 -13 15 14 19 15 19 2 0 -8 -4 -12 -9 -9 -4 3 -8 1 -8
-5 0 -5 -9 -9 -19 -8 -11 0 -18 4 -15 8 2 4 -3 12 -11 19 -8 7 -15 9 -15 4 0
-5 -19 -10 -42 -12 -25 -2 -51 -11 -63 -22 -12 -11 -25 -20 -31 -20 -5 0 -2 5
6 10 9 6 10 10 3 10 -6 0 -15 -4 -18 -10 -3 -5 -15 -10 -26 -10 -10 0 -19 -5
-19 -12 0 -9 -3 -9 -12 0 -16 16 -31 15 -22 0 6 -10 4 -10 -8 0 -8 7 -26 10
-39 8 -13 -3 -28 -5 -33 -5 -4 -1 -5 -9 -1 -18 5 -15 4 -16 -6 -5 -7 6 -18 12
-23 12 -6 0 -4 -5 4 -10 13 -8 12 -12 -4 -27 -19 -17 -19 -17 -6 1 14 18 13
18 -10 11 -23 -7 -24 -7 -10 10 14 18 14 18 -11 2 -14 -10 -29 -14 -34 -10 -4
5 -5 2 -1 -4 5 -9 -3 -13 -31 -12 -46 0 -70 -4 -80 -16 -4 -4 -2 -5 6 0 9 5
12 4 7 -3 -4 -6 -14 -8 -23 -5 -10 4 -14 2 -10 -4 7 -11 -35 -12 -44 0 -3 4
-27 -4 -55 -18 -27 -14 -66 -25 -87 -25 -24 0 -40 -5 -43 -15 -4 -8 -10 -12
-15 -9 -5 3 -9 1 -9 -4 0 -6 7 -13 16 -16 8 -3 12 -2 9 3 -3 5 -1 12 4 15 5 4
8 -2 6 -11 -3 -19 23 -55 35 -48 4 2 7 -3 7 -11 0 -10 -9 -7 -28 12 -24 23
-58 26 -44 4 3 -5 -2 -16 -11 -24 -14 -15 -13 -16 8 -17 21 0 21 -1 4 -8 -19
-7 -18 -8 4 -14 13 -3 21 -9 17 -13 -4 -4 3 -19 15 -33 l23 -26 -22 19 c-13
11 -23 14 -23 8 0 -6 5 -14 10 -17 8 -5 7 -12 -2 -23 -11 -13 -11 -15 2 -7 8
4 12 5 8 1 -4 -5 -3 -19 2 -32 7 -18 6 -24 -5 -24 -7 0 -16 4 -19 9 -3 5 -23
11 -43 12 l-38 4 3 -40 c3 -36 7 -41 30 -43 14 -1 22 1 18 5 -4 5 -13 8 -19 8
-7 0 -13 9 -14 20 l-3 20 9 -20 c9 -19 10 -19 10 2 1 12 -5 23 -11 26 -7 3 -2
5 12 4 14 0 34 -6 44 -13 18 -13 18 -13 -2 -11 -11 0 -18 5 -16 9 3 4 0 8 -5
8 -6 0 -11 -9 -11 -21 0 -13 4 -18 12 -13 6 4 8 3 4 -4 -3 -6 -2 -13 4 -17 16
-10 12 -28 -5 -21 -10 3 -15 -1 -16 -12 0 -14 -2 -14 -10 3 -8 17 -9 16 -6 -7
2 -15 0 -25 -4 -22 -5 3 -9 15 -9 26 0 32 -9 17 -12 -19 -1 -18 -5 -30 -9 -27
-10 6 -30 -22 -22 -30 4 -4 -1 -4 -11 0 -12 4 -17 4 -13 -2 3 -5 -3 -10 -14
-10 -13 0 -19 7 -19 23 0 13 -6 23 -12 23 -10 0 -10 2 -1 8 7 4 11 17 10 29
-1 15 -5 19 -13 13 -6 -6 -13 -8 -16 -5 -2 3 -3 -9 0 -25 2 -17 8 -30 14 -30
5 0 8 -18 6 -40 -1 -31 -5 -37 -15 -28 -7 6 -13 18 -14 27 0 12 -2 12 -10 -4
-8 -18 -9 -18 -7 5 2 40 -13 129 -23 136 -6 4 -6 10 0 18 8 9 7 13 -4 13 -8 0
-12 -4 -9 -8 2 -4 0 -10 -5 -14 -6 -3 -7 -13 -4 -21 5 -13 7 -13 15 -2 9 14 5
-21 -7 -57 -7 -20 -7 -20 9 0 16 19 16 19 13 -5 -5 -34 -18 -30 -40 11 l-18
34 3 -29 c2 -21 -2 -30 -13 -31 -12 -2 -16 5 -15 28 1 37 33 47 45 15 6 -18 9
-19 14 -5 11 30 -41 50 -78 30 -11 -6 -24 -12 -30 -14 -5 -1 -9 -10 -7 -21 3
-16 -8 -23 -30 -19 -5 0 -7 -2 -6 -7 1 -4 -3 -17 -10 -28 -6 -12 -9 -31 -7
-43 3 -14 0 -19 -7 -15 -7 5 -9 2 -6 -7 4 -10 -2 -15 -19 -17 -13 -1 -22 2
-18 7 3 5 1 13 -5 16 -6 4 -10 3 -9 -2 5 -27 -2 -53 -13 -47 -8 5 -8 3 -2 -7
5 -8 9 -28 9 -46 1 -26 -2 -30 -12 -21 -10 8 -11 14 -3 22 5 5 10 15 10 21 0
5 -4 4 -9 -3 -4 -7 -17 -15 -27 -16 -11 -2 -18 -10 -16 -19 1 -8 -8 -23 -20
-31 -13 -9 -23 -20 -23 -24 0 -4 -4 -6 -9 -4 -5 2 -3 -4 4 -13 11 -13 11 -15
1 -13 -8 2 -15 -5 -16 -15 -4 -22 -15 -36 -15 -19 0 7 -4 12 -9 12 -5 0 -8 -8
-6 -17 1 -10 7 -17 12 -16 5 1 10 -5 10 -13 0 -7 -2 -12 -5 -10 -2 3 -20 -11
-40 -31 -19 -19 -32 -28 -29 -19 8 20 2 20 -22 -1 -11 -9 -17 -21 -14 -26 3
-5 9 -3 14 4 5 8 9 9 9 3 0 -6 -10 -19 -22 -30 -12 -10 -18 -14 -15 -7 4 6 3
15 -3 18 -8 5 -8 11 0 20 8 10 8 15 -1 21 -8 5 -9 3 -4 -6 6 -9 4 -12 -7 -8
-11 5 -14 0 -11 -20 3 -22 2 -24 -5 -7 -8 17 -9 17 -16 -9 -5 -19 -3 -32 4
-36 9 -5 9 -9 1 -14 -6 -4 -11 -3 -11 2 0 6 -9 8 -19 5 -13 -3 -18 -12 -16
-24 2 -10 0 -19 -6 -19 -5 0 -9 -4 -9 -10 0 -5 7 -7 15 -4 8 4 1 -10 -17 -30
-17 -20 -34 -36 -36 -36 -3 0 2 8 10 18 26 30 31 42 14 36 -9 -3 -14 -10 -11
-14 2 -4 -4 -15 -15 -25 -16 -14 -17 -20 -8 -27 10 -6 10 -8 1 -8 -7 0 -13 -9
-13 -21 0 -11 -4 -17 -10 -14 -5 3 -10 -1 -10 -10 0 -9 -4 -13 -10 -10 -6 3
-7 -1 -4 -10 5 -13 9 -13 23 -3 11 9 11 7 -2 -9 -11 -12 -17 -26 -14 -30 3 -5
-4 -10 -16 -10 -15 -2 -18 0 -8 6 11 7 11 13 1 27 -9 16 -11 16 -6 2 3 -10 1
-20 -4 -23 -5 -3 -6 -13 -3 -22 5 -12 3 -14 -8 -8 -9 6 -8 0 4 -19 11 -16 17
-41 16 -59 -2 -18 1 -39 6 -47 7 -12 6 -13 -6 -3 -10 8 -14 23 -11 44 3 18 1
29 -4 26 -11 -6 -9 -140 2 -158 4 -7 8 -35 9 -62 1 -49 -13 -82 -36 -82 -7 0
-14 -12 -14 -27 -1 -15 2 -25 6 -22 4 2 6 13 4 24 -2 12 0 18 5 15 12 -7 4
-47 -12 -57 -10 -6 -10 -8 1 -8 11 0 11 -3 0 -17 -8 -9 -9 -14 -3 -10 7 4 10
-2 6 -18 -2 -15 -9 -22 -16 -18 -8 5 -8 3 1 -8 16 -20 17 -31 1 -40 -10 -7
-10 -9 2 -9 13 0 13 -2 1 -9 -8 -5 -15 -19 -16 -30 -1 -17 1 -18 12 -9 11 9
13 8 11 -3 -2 -8 -7 -17 -13 -21 -6 -5 -5 -8 4 -8 10 0 11 -3 2 -14 -9 -11 -9
-16 0 -21 8 -6 7 -10 -2 -16 -11 -7 -9 -9 6 -9 17 0 17 -2 5 -10 -11 -7 -11
-10 -2 -10 7 0 11 -4 7 -9 -3 -6 3 -8 13 -6 11 2 19 -3 19 -10 0 -8 -4 -12 -8
-10 -10 7 -19 -22 -18 -58 0 -27 2 -29 9 -12 8 17 9 17 7 -7 -1 -15 -5 -24
-10 -21 -5 3 -7 -5 -5 -18 2 -14 9 -23 17 -21 12 3 12 0 1 -12 -10 -13 -10
-16 1 -16 11 0 11 -2 -1 -10 -10 -6 -11 -10 -2 -10 6 0 12 -9 12 -20 0 -11 4
-20 9 -20 5 0 11 -10 15 -23 3 -13 15 -34 26 -47 11 -13 20 -32 20 -42 0 -13
4 -17 13 -12 8 5 8 3 -2 -9 -11 -14 -11 -18 3 -23 9 -3 13 -10 10 -15 -3 -5 2
-12 10 -15 9 -3 16 -17 16 -29 0 -29 19 -43 31 -24 7 11 9 9 9 -6 0 -17 2 -18
10 -5 8 11 9 7 4 -14 -6 -25 -4 -28 10 -23 10 4 15 3 11 -3 -3 -6 3 -10 14
-10 12 0 21 6 21 13 0 6 5 4 11 -6 6 -9 15 -14 21 -11 7 4 8 2 4 -4 -4 -7 -2
-12 5 -12 7 0 10 -3 6 -6 -3 -3 -12 -2 -19 2 -15 10 -42 15 -34 7 3 -4 0 -13
-6 -22 -8 -9 -3 -8 10 3 23 20 23 20 29 -2 3 -14 14 -22 27 -23 11 0 15 -3 9
-6 -7 -2 -13 -9 -13 -14 0 -6 5 -7 10 -4 15 9 12 -48 -2 -64 -10 -11 -10 -13
0 -7 7 5 12 1 12 -9 0 -9 5 -13 10 -10 8 5 8 11 0 20 -7 8 -7 15 -1 19 5 3 7
16 5 29 -4 20 -4 20 5 2 5 -12 5 -25 -1 -32 -6 -7 -5 -14 2 -18 8 -5 8 -11 -1
-21 -8 -10 -15 -11 -24 -4 -8 7 -11 4 -10 -10 1 -11 5 -23 10 -27 4 -5 5 -3 2
3 -3 6 0 11 8 11 11 0 12 -4 4 -13 -6 -7 -7 -19 -3 -26 5 -9 1 -8 -12 2 -19
14 -19 14 0 -7 10 -13 22 -21 26 -18 8 5 10 -4 13 -67 1 -27 5 -48 9 -48 12 0
21 -44 19 -90 -1 -25 3 -52 9 -60 8 -13 10 -13 10 0 0 9 3 11 10 4 9 -9 -6
-70 -20 -84 -3 -3 -15 -34 -27 -70 -15 -44 -27 -122 -38 -245 -9 -99 -23 -222
-30 -272 -20 -122 -19 -168 4 -229 10 -29 22 -83 26 -120 4 -38 13 -88 21
-111 l14 -42 -36 -38 c-49 -50 -64 -89 -64 -163 0 -125 84 -227 227 -274 45
-15 57 -25 84 -69 78 -128 220 -273 359 -367 33 -22 60 -43 60 -46 0 -3 -24
-35 -53 -72 -69 -87 -85 -116 -135 -242 -44 -114 -62 -188 -44 -176 6 4 19 3
29 -2 10 -6 30 -15 45 -22 15 -7 30 -21 34 -32 3 -10 11 -18 19 -18 7 0 15 -6
17 -12 3 -7 13 -13 23 -13 11 0 29 -17 44 -43 14 -23 36 -50 49 -58 21 -15 25
-15 43 2 10 9 19 12 19 6 0 -6 22 -23 50 -39 36 -20 50 -34 50 -50 0 -26 26
-43 67 -44 15 0 55 -16 88 -34 33 -19 84 -45 113 -59 29 -14 55 -33 58 -41 3
-8 15 -17 27 -21 12 -4 33 -15 47 -25 39 -29 224 -101 228 -89 6 17 31 11 42
-9 11 -22 73 -46 96 -37 17 6 80 -19 103 -42 7 -7 25 -12 40 -11 14 2 35 -2
46 -8 11 -6 38 -11 60 -10 22 0 58 -10 80 -22 41 -22 105 -29 105 -11 0 18 29
11 50 -12 19 -20 24 -21 65 -10 62 16 82 15 97 -6 19 -26 61 -39 173 -51 119
-13 315 -13 315 0 0 14 38 11 43 -3 3 -10 7 -10 20 1 12 9 35 12 77 9 33 -2
60 -1 60 3 0 4 48 6 107 4 59 -2 112 -1 118 3 11 8 35 9 197 15 59 2 113 9
120 15 20 16 130 39 174 36 21 -1 59 6 86 17 26 10 54 16 62 13 16 -6 86 21
86 34 0 5 28 15 63 21 82 16 169 42 163 48 -8 8 21 33 37 33 8 0 20 7 27 15 7
8 19 15 26 15 8 0 14 5 14 10 0 6 25 10 55 10 30 0 55 4 55 10 0 5 7 7 15 4
10 -4 13 0 10 15 -2 13 1 21 9 21 8 0 19 7 26 15 7 8 23 15 36 15 13 0 24 5
24 10 0 6 7 10 15 10 8 0 15 7 15 16 0 8 5 12 10 9 6 -3 10 1 10 9 0 9 7 16
16 16 8 0 12 5 9 10 -3 6 1 10 9 10 9 0 16 5 16 10 0 6 7 10 15 10 8 0 14 5
12 12 -1 6 8 17 20 23 13 7 20 14 17 18 -3 3 7 13 23 23 15 9 39 24 53 33 14
8 31 14 39 13 7 -2 10 1 6 7 -3 7 2 11 14 11 12 0 21 5 21 11 0 5 -6 7 -12 3
-7 -3 1 6 17 20 17 14 37 24 46 22 18 -4 51 28 41 39 -4 4 0 5 8 3 9 -2 14 3
12 12 -3 11 -1 12 8 3 10 -9 19 -4 41 18 15 16 35 29 42 29 19 0 39 24 29 35
-4 5 1 5 10 2 11 -4 38 11 79 44 34 27 67 49 74 49 12 0 30 27 27 41 -1 4 11
10 26 14 15 4 35 14 44 23 67 65 80 76 74 64 -10 -17 2 -15 20 3 9 8 12 15 7
15 -4 0 4 11 19 24 15 12 24 27 20 31 -4 5 -2 5 4 2 6 -3 20 2 31 13 12 10 24
16 28 12 12 -11 -4 64 -32 158 -14 47 -38 130 -54 185 -15 55 -50 178 -78 273
-27 96 -52 187 -55 202 -2 16 -7 33 -11 39 -4 7 0 8 11 4 13 -5 15 -2 9 18 -3
13 -3 20 2 14 12 -15 33 -17 33 -3 0 9 3 9 12 0 8 -8 8 -15 -2 -26 -7 -9 -16
-13 -21 -10 -5 3 -9 -3 -10 -13 0 -10 -2 -25 -4 -34 -1 -9 0 -22 4 -28 11 -16
49 -22 57 -8 4 7 4 9 -1 5 -4 -4 -15 -2 -23 5 -13 10 -14 9 -7 -2 5 -10 4 -12
-4 -7 -8 6 -9 12 -2 20 7 9 7 16 -1 24 -9 9 -9 15 1 25 10 10 11 8 6 -8 -6
-16 -5 -17 4 -5 9 12 11 10 7 -11 -3 -18 0 -26 10 -26 10 0 11 4 5 10 -12 12
5 51 18 43 4 -3 8 1 8 9 0 8 -4 15 -9 15 -4 0 -8 -5 -8 -11 0 -5 -4 -8 -10 -4
-16 10 1 34 21 30 11 -2 17 0 14 5 -3 5 -1 11 4 15 5 3 7 15 5 28 -7 28 -8 39
-3 52 2 6 1 11 -4 13 -4 1 -8 -1 -8 -5 -1 -5 -7 -16 -14 -27 -8 -10 -11 -24
-8 -32 2 -7 0 -20 -5 -29 -8 -16 -9 -16 -15 -1 -4 10 -3 15 3 11 6 -3 10 1 10
10 0 10 -5 14 -12 9 -10 -6 -10 -4 0 7 19 21 14 34 -7 15 -13 -12 -21 -14 -26
-6 -3 6 -3 10 2 9 20 -3 27 2 13 11 -11 7 -7 9 15 7 25 -2 30 2 29 20 -1 12 4
21 10 20 5 -1 13 14 17 33 6 35 6 35 8 5 0 -17 6 -36 13 -43 8 -8 8 -15 -3
-29 -13 -16 -12 -17 4 -4 19 15 23 41 6 41 -6 0 -8 14 -6 33 3 20 -2 39 -12
52 -14 18 -14 18 0 7 9 -6 19 -9 22 -5 10 9 9 25 -1 19 -4 -2 -8 4 -9 14 -1
11 3 23 9 26 7 4 8 2 4 -5 -8 -13 10 -41 26 -41 5 0 2 7 -7 16 -13 13 -14 19
-4 25 7 4 17 5 23 2 5 -3 6 -2 3 4 -3 5 -19 9 -35 8 -17 -1 -29 3 -29 11 0 7
5 12 10 11 5 -1 12 4 15 12 2 8 0 11 -5 8 -5 -3 -9 4 -9 17 0 15 6 23 20 24
10 0 23 7 27 14 7 10 9 10 9 0 0 -7 -10 -17 -22 -22 -17 -6 -18 -9 -6 -9 9 -1
19 -5 22 -10 4 -5 -2 -7 -11 -5 -14 4 -18 -1 -18 -20 0 -16 4 -21 11 -15 6 5
16 4 24 -4 8 -6 6 -2 -5 11 -14 17 -15 23 -5 20 8 -2 14 5 15 17 2 33 16 66
26 60 5 -4 9 -11 9 -16 0 -6 -6 -7 -12 -3 -9 5 -9 2 1 -9 7 -9 14 -17 15 -17
0 0 1 35 0 77 0 78 13 125 28 100 13 -21 32 10 30 49 -2 20 3 43 10 52 9 11 9
13 1 9 -8 -5 -11 0 -11 15 3 53 -2 79 -14 72 -7 -4 -10 -4 -6 1 4 4 2 15 -4
24 -10 13 -10 14 2 4 23 -21 35 -15 15 7 -11 12 -20 31 -22 43 -2 17 -1 19 6
7 5 -8 8 -17 5 -21 -2 -4 2 -12 10 -18 10 -9 17 -7 27 6 12 15 12 16 -4 10
-10 -4 -16 -3 -12 2 3 5 1 12 -3 15 -11 6 -9 36 3 56 8 13 6 13 -8 1 -9 -7
-15 -17 -12 -21 3 -5 -3 -7 -12 -5 -10 2 -22 4 -26 4 -5 1 -5 6 -1 12 5 8 9 8
14 -1 5 -8 9 -5 12 8 4 16 2 19 -11 15 -14 -4 -14 -3 1 7 16 10 15 45 -1 36
-4 -3 -5 11 -3 30 3 26 7 32 17 24 9 -8 11 -4 7 15 -2 15 -9 22 -15 18 -7 -4
-1 6 11 22 19 24 21 31 10 40 -8 5 -15 21 -15 35 -2 20 0 22 8 10 8 -11 12
-12 16 -2 7 17 20 15 20 -2 0 -8 -5 -14 -10 -13 -5 1 -12 -4 -15 -12 -2 -8 0
-11 6 -7 6 3 14 1 18 -5 5 -8 3 -9 -7 -4 -8 5 -11 5 -7 0 4 -4 3 -17 -3 -28
-8 -14 -8 -18 0 -13 6 4 11 3 11 -3 0 -5 -5 -13 -10 -16 -6 -3 -10 -12 -10
-18 0 -8 3 -8 9 1 7 11 9 11 14 -1 3 -8 1 -19 -5 -25 -6 -6 -6 -12 1 -17 7 -4
10 -1 9 7 -2 7 3 12 11 10 12 -3 12 0 2 12 -14 17 -24 79 -11 71 5 -3 7 6 4
21 -3 14 -1 23 4 20 5 -3 8 7 7 22 -1 15 3 34 9 42 7 10 4 9 -10 -2 -16 -14
-23 -15 -33 -5 -9 9 -14 9 -19 0 -5 -8 -11 -4 -18 11 -9 20 -8 23 7 22 10 -1
25 -10 34 -21 13 -16 16 -17 11 -3 -3 10 0 20 6 24 7 5 8 2 3 -6 -5 -9 -4 -11
3 -6 7 4 12 14 12 22 0 8 -4 13 -8 10 -5 -3 -9 1 -9 9 0 8 4 12 7 10 12 -8 9
49 -4 64 -8 11 -8 13 1 8 6 -4 15 -2 19 4 5 8 3 9 -6 4 -10 -6 -12 -4 -7 8 3
10 2 17 -3 17 -5 0 -8 14 -8 31 1 17 -4 34 -10 38 -6 4 -1 11 14 18 20 9 24 8
24 -4 0 -11 5 -9 18 7 17 21 195 89 235 90 23 0 22 13 -3 35 -11 10 -20 22
-20 26 0 4 -53 61 -119 126 -108 108 -141 148 -141 170 0 4 4 2 9 -5 6 -10 11
-9 22 4 8 10 9 15 3 11 -6 -3 -11 0 -11 8 0 8 4 12 9 9 7 -5 12 10 9 29 -1 5
3 6 8 2 6 -3 8 -13 4 -23 -3 -11 1 -9 11 6 19 25 12 47 -11 37 -14 -5 -14 -3
-2 12 9 11 10 14 2 9 -8 -4 -13 -2 -13 6 -1 8 -6 6 -15 -6 -8 -11 -15 -14 -15
-8 0 7 -6 12 -14 12 -8 0 -16 7 -20 15 -7 19 78 110 93 100 6 -3 11 -1 11 6 0
28 116 100 215 134 66 22 139 41 195 50 89 14 91 11 -90 137 -36 25 -105 73
-155 108 -49 35 -119 84 -155 109 -36 25 -77 54 -90 64 l-25 17 37 73 c79 152
138 229 304 394 l163 162 -62 5 c-34 3 -120 10 -192 16 -71 5 -150 12 -175 15
-57 6 -137 12 -270 20 -158 9 -153 7 -145 74 9 74 49 241 75 316 12 33 46 109
76 169 30 59 53 110 50 113 -7 8 -204 -37 -299 -69 -51 -16 -144 -56 -208 -89
-64 -32 -121 -59 -127 -59 -20 0 -74 135 -113 280 -25 95 -44 204 -59 345 -7
61 -14 117 -17 125 -8 27 -291 -284 -385 -423 -3 -6 -15 -11 -25 -12 -10 0
-25 -5 -32 -10 -10 -5 -12 -4 -7 3 5 9 -9 12 -46 13 -29 1 -57 1 -62 0 -4 -1
-15 4 -24 11 -13 11 -15 11 -8 -2 4 -9 1 -8 -7 3 -8 9 -19 17 -26 17 -6 0 -11
7 -11 15 0 13 -11 19 -32 16 -4 0 -19 6 -34 14 -15 8 -32 12 -36 9 -5 -3 -17
4 -27 15 -10 12 -24 21 -31 21 -7 0 -42 22 -79 49 -107 79 -335 210 -347 199
-2 -2 -4 -41 -5 -87 -1 -67 -4 -80 -13 -65 -13 22 -36 30 -36 12 0 -9 -4 -8
-10 2 -9 13 -10 13 -10 0 0 -10 -3 -11 -8 -3 -9 14 -141 22 -139 8 1 -5 -2 -9
-8 -10 -5 0 -16 -4 -22 -8 -9 -5 -11 -3 -8 6 4 10 -3 13 -32 10 -20 -1 -43 -5
-50 -7 -7 -3 -13 0 -13 7 0 8 -3 8 -9 -2 -7 -11 -9 -11 -14 0 -4 9 -6 7 -7 -6
l-1 -20 -9 20 c-7 15 -9 16 -9 4 -1 -12 -9 -16 -31 -14 -17 1 -34 6 -38 10 -4
5 1 5 10 2 10 -3 20 -3 22 2 3 4 -13 7 -34 7 -21 0 -36 -4 -34 -8 3 -5 0 -7
-8 -6 -7 2 -12 -3 -10 -11 3 -12 1 -12 -14 -1 -23 20 -34 53 -21 68 8 10 7 12
-4 10 -8 -2 -13 3 -11 11 3 12 0 12 -11 2 -12 -9 -16 -9 -20 1 -4 11 -6 11 -6
0 -1 -10 -6 -10 -22 -1 -13 7 -19 7 -15 1 3 -6 2 -13 -2 -16 -12 -7 -53 23
-46 35 3 5 0 8 -8 7 -7 -2 -12 2 -11 8 1 6 -8 10 -20 10 -12 -1 -27 1 -33 6
-6 4 -11 2 -11 -7 0 -8 4 -12 9 -9 9 6 10 3 14 -45 1 -19 -1 -30 -5 -23 -9 15
-36 10 -62 -14 -12 -10 -19 -13 -14 -5 6 11 4 13 -9 8 -9 -4 -14 -3 -11 2 3 5
1 12 -5 16 -5 3 -10 0 -10 -7 0 -9 -3 -9 -10 2 -9 13 -10 13 -10 0 0 -13 -1
-13 -10 0 -7 11 -10 11 -10 2 0 -7 -4 -10 -10 -7 -5 3 -10 -2 -11 -12 0 -16
-1 -16 -9 2 l-9 20 -1 -20 -1 -20 -15 20 c-8 11 -20 20 -27 20 -7 0 -11 8 -11
18 1 9 -2 15 -6 12 -5 -3 -10 -2 -13 2 -2 5 -2 2 0 -6 3 -11 1 -11 -11 -2 -8
7 -23 11 -33 9 -11 -2 -25 6 -35 22 -11 14 -18 19 -18 11 0 -11 -4 -9 -14 5
-14 18 -15 18 -21 2 -4 -10 -11 -15 -17 -12 -5 3 -4 13 4 22 11 15 10 15 -8 0
-19 -17 -21 -17 -37 -1 -9 10 -17 12 -17 6 0 -6 7 -13 15 -17 8 -3 15 -10 15
-16 0 -6 -7 -4 -16 4 -8 9 -20 14 -25 10 -5 -3 -8 0 -7 7 2 6 -3 14 -11 17 -9
3 -11 0 -6 -9 5 -8 -2 -5 -15 6 -13 11 -20 15 -17 8 10 -17 -17 -10 -37 10
-23 22 -32 22 -15 0 13 -16 12 -17 -3 -4 -10 7 -18 21 -19 30 0 12 -2 11 -9
-4 l-9 -20 -1 20 c-2 11 -2 24 -1 28 1 5 -3 5 -9 2 -6 -4 -9 -14 -5 -22 4 -13
3 -14 -10 -3 -14 12 -14 15 2 33 12 14 13 18 3 11 -8 -5 -18 -9 -22 -9 -3 0
-10 -4 -15 -9 -5 -5 -3 -6 4 -2 9 5 11 2 7 -9 -5 -13 -10 -10 -24 13 -10 17
-24 33 -31 37 -7 5 -10 4 -6 -2 4 -6 1 -18 -6 -28 -12 -15 -13 -14 -11 14 1
17 -2 33 -6 36 -5 3 -7 -4 -5 -15 2 -11 -1 -20 -6 -20 -6 0 -7 -4 -4 -10 3 -5
1 -10 -5 -10 -6 0 -9 -4 -5 -9 3 -5 0 -13 -6 -17 -7 -4 -9 -3 -5 4 3 6 2 14
-4 17 -8 5 -8 11 -1 19 8 9 6 12 -7 11 -9 0 -22 -4 -28 -7 -13 -9 -18 60 -5
76 8 9 7 13 -4 13 -7 0 -13 -5 -12 -11 1 -5 -4 -10 -11 -11 -15 0 -33 -26 -26
-36 2 -4 0 -11 -6 -14 -6 -4 -9 -1 -8 7 2 7 -2 12 -9 11 -6 -1 -14 4 -17 13
-4 12 -2 12 14 4 14 -7 20 -7 20 0 0 5 -4 10 -10 10 -5 0 -10 7 -10 16 0 13 3
14 13 5 10 -8 14 -7 14 3 0 8 -9 13 -22 12 -16 -2 -21 3 -22 23 0 14 1 18 4 9
2 -10 9 -18 15 -18 5 0 7 8 4 18 -6 16 -5 16 7 0 11 -14 13 -11 14 23 1 21 -3
39 -8 39 -6 0 -7 -6 -3 -12 6 -9 3 -9 -9 1 -15 11 -18 10 -27 -13z m224 -181
c3 -8 1 -15 -4 -15 -6 0 -10 7 -10 15 0 8 2 15 4 15 2 0 6 -7 10 -15z m356
-120 c5 3 14 -3 19 -14 7 -13 17 -17 31 -14 15 4 19 2 14 -10 -3 -9 -14 -15
-24 -14 -10 1 -16 5 -14 9 3 4 0 8 -5 8 -6 0 -11 -6 -11 -12 0 -19 -34 34 -37
57 -3 18 -2 19 8 2 6 -9 14 -15 19 -12z m417 -19 c17 -19 33 -33 35 -31 2 2 9
-8 14 -24 9 -21 8 -28 -2 -28 -7 0 -10 7 -6 15 4 11 1 13 -8 7 -7 -5 -11 -4
-7 1 3 5 -2 18 -10 29 -15 19 -15 19 -9 -10 5 -25 4 -27 -5 -12 -6 10 -8 25
-5 33 5 12 -5 18 -26 15 -4 0 -4 7 -1 16 4 11 3 14 -5 9 -7 -4 -12 -2 -12 3 0
19 14 12 47 -23z m-1480 -1 c0 -8 -4 -12 -9 -9 -5 3 -6 10 -3 15 9 13 12 11
12 -6z m19 -31 c-5 -28 -16 -45 -16 -25 0 7 -5 9 -12 5 -6 -4 -3 5 8 19 24 33
25 33 20 1z m1590 -26 c1 -27 -3 -35 -14 -34 -8 2 -16 10 -18 20 -2 14 0 15
13 4 13 -10 15 -9 11 7 -2 13 -11 20 -25 19 -13 -1 -20 3 -17 7 3 5 0 9 -5 9
-6 0 -11 -5 -11 -12 0 -6 -3 -9 -6 -5 -13 13 8 25 39 23 29 -2 32 -5 33 -38z
m-403 7 c4 -8 3 -16 -1 -19 -4 -3 -9 4 -9 15 -2 23 3 25 10 4z m190 2 c3 -8
-1 -14 -8 -14 -7 0 -11 6 -8 14 3 7 6 13 8 13 2 0 5 -6 8 -13z m108 -44 c13
-16 12 -17 -3 -4 -10 7 -18 15 -18 17 0 8 8 3 21 -13z m-1795 -143 c0 -11 -4
-19 -7 -18 -7 4 -34 -24 -42 -42 -4 -12 -6 -12 -6 2 -1 9 -5 19 -10 22 -5 4
-7 -4 -4 -16 5 -23 5 -23 -12 -3 -13 15 -15 16 -12 3 4 -11 0 -15 -11 -14 -9
2 -18 9 -20 17 -3 11 -1 11 8 -1 10 -12 11 -11 7 7 -3 14 2 27 12 35 14 12 15
11 2 -4 -12 -16 -10 -17 25 -15 21 2 40 9 42 15 2 7 -3 10 -12 6 -9 -3 -16 -1
-16 4 0 6 9 9 20 7 11 -2 22 0 25 6 9 14 12 11 11 -11z m1089 -40 c25 -21 18
-74 -15 -116 -17 -22 -45 -59 -63 -83 -17 -24 -54 -59 -82 -78 -71 -47 -111
-90 -126 -135 -14 -45 -35 -59 -81 -57 -66 4 -74 0 -91 -39 -9 -21 -17 -45
-17 -53 0 -8 -29 -42 -64 -75 -57 -56 -66 -69 -90 -145 -15 -46 -30 -91 -33
-99 -4 -8 -11 -37 -17 -65 -10 -44 -14 -50 -36 -50 -24 0 -25 3 -28 70 -2 39
3 111 12 160 8 50 19 118 25 152 8 51 61 184 81 203 3 3 31 43 62 90 31 47 70
100 87 119 17 19 31 38 31 43 0 4 8 8 18 8 10 0 32 14 50 30 18 17 36 30 39
30 3 0 25 16 49 35 67 55 133 76 222 70 29 -2 59 -9 67 -15z m2195 -58 c0 -5
-9 -19 -20 -32 -15 -17 -20 -19 -20 -8 0 9 7 19 16 22 8 3 12 10 9 16 -3 5 -1
10 4 10 6 0 11 -4 11 -8z m-3449 -35 c-10 -9 -11 -8 -5 6 3 10 9 15 12 12 3
-3 0 -11 -7 -18z m-379 -70 c-6 -7 -12 -29 -14 -49 -1 -20 -5 -35 -8 -33 -16
10 9 95 27 95 3 0 1 -6 -5 -13z m2264 -43 c13 -9 24 -12 24 -8 1 5 10 -2 20
-15 11 -13 20 -20 20 -17 0 4 14 0 30 -9 34 -18 39 -35 10 -35 -11 0 -20 5
-20 10 0 6 -13 10 -30 10 -36 0 -36 0 -10 -50 11 -22 20 -41 20 -44 0 -6 -62
4 -80 14 -8 4 -34 7 -57 6 -23 -1 -39 2 -37 6 3 5 0 8 -5 8 -6 0 -11 -6 -12
-12 0 -9 -2 -9 -6 1 -5 11 -7 11 -14 0 -7 -12 -9 -11 -9 1 0 13 -1 13 -10 0
-7 -11 -10 -12 -10 -2 0 10 -4 9 -16 -3 -14 -13 -19 -14 -25 -3 -7 10 -9 10
-9 1 0 -7 -3 -12 -7 -11 -9 1 -35 -7 -78 -27 -25 -11 -67 -19 -142 -27 -7 -1
-13 -5 -13 -9 0 -4 -8 -8 -17 -7 -10 0 -29 -3 -43 -7 -14 -4 -31 -7 -37 -7 -7
-1 -13 -5 -13 -10 0 -6 -6 -8 -12 -6 -7 3 -33 -17 -58 -43 -49 -53 -68 -56
-100 -19 -41 48 -34 82 32 154 10 11 18 23 18 27 0 4 9 9 20 12 11 3 20 1 20
-4 0 -5 5 -9 11 -9 5 0 7 6 3 13 -5 7 0 6 11 -3 11 -9 16 -10 11 -2 -5 8 0 12
14 12 11 0 24 8 27 18 11 27 40 55 52 48 5 -4 12 -3 15 2 3 5 60 10 128 11
123 2 143 5 133 21 -3 4 14 15 37 23 54 19 179 14 214 -9z m575 -10 c27 -13
52 -24 56 -24 20 0 83 -37 88 -52 3 -9 3 -33 0 -52 -6 -30 -10 -34 -33 -30
-15 3 -32 10 -38 15 -6 5 -31 20 -55 32 -92 47 -119 68 -138 104 -9 18 -8 24
6 32 22 12 49 6 114 -25z m-2880 -7 c-10 -9 -11 -8 -5 6 3 10 9 15 12 12 3 -3
0 -11 -7 -18z m-24 -10 c0 -8 -6 -14 -14 -14 -9 0 -10 4 -2 14 6 7 12 13 14
13 1 0 2 -6 2 -13z m163 -12 c0 -2 -10 -9 -22 -15 -22 -11 -22 -10 -4 4 21 17
26 19 26 11z m-153 -30 c0 -8 -4 -12 -9 -9 -5 3 -6 10 -3 15 9 13 12 11 12 -6z
m24 -42 c13 -16 12 -17 -3 -4 -10 7 -18 15 -18 17 0 8 8 3 21 -13z m30 0 c13
-16 12 -17 -3 -4 -10 7 -18 15 -18 17 0 8 8 3 21 -13z m2699 3 c0 4 16 -13 35
-37 39 -49 39 -58 6 -70 -12 -5 -20 -5 -17 0 6 9 -59 31 -93 31 -13 0 -19 4
-16 10 4 6 10 8 14 5 5 -2 6 7 3 22 -6 33 21 57 49 42 11 -5 19 -7 19 -3z
m-2899 -123 c13 -16 18 -23 10 -16 -14 12 -44 7 -36 -6 2 -4 -3 -8 -12 -8 -13
0 -12 4 5 17 16 13 18 20 9 29 -6 6 -9 11 -6 11 3 0 16 -12 30 -27z m2999 -3
c0 -5 -2 -10 -4 -10 -3 0 -8 5 -11 10 -3 6 -1 10 4 10 6 0 11 -4 11 -10z
m-467 -74 c13 -9 26 -13 30 -10 3 3 16 -1 29 -10 21 -15 21 -16 3 -17 -20 0
-20 -1 0 -9 l20 -9 -20 -1 c-11 -2 -23 -2 -27 -1 -5 0 -8 -4 -8 -10 0 -8 -4
-8 -14 1 -27 22 -78 8 -117 -32 -19 -21 -41 -38 -49 -38 -7 0 -10 -3 -7 -6 4
-4 -3 -15 -15 -25 -11 -11 -17 -19 -13 -19 12 0 -47 -49 -67 -56 -10 -3 -18
-12 -18 -20 0 -8 -6 -17 -14 -20 -11 -4 -30 -81 -28 -114 0 -3 -4 -13 -10 -24
-7 -13 -7 -16 1 -12 8 5 8 0 1 -19 -6 -15 -8 -30 -5 -35 3 -5 -1 -14 -8 -22
-8 -7 -14 -21 -14 -30 0 -16 -16 -76 -31 -118 -3 -8 -4 -18 -4 -22 1 -5 -2 -8
-8 -8 -5 0 -10 5 -10 12 0 6 -3 9 -6 5 -3 -3 -2 -12 2 -19 5 -7 9 -15 9 -18 2
-15 32 -50 42 -50 7 0 15 -11 19 -24 4 -18 -4 -36 -31 -72 -52 -68 -92 -159
-100 -229 -5 -41 -16 -72 -37 -102 -23 -34 -47 -113 -48 -160 0 -1 -12 -9 -27
-17 -36 -18 -70 -5 -79 30 -6 25 8 102 39 215 7 28 30 67 57 98 53 61 61 84
45 131 -9 26 -17 34 -31 32 -20 -4 -54 -40 -51 -56 1 -5 -11 -16 -26 -24 -16
-7 -31 -20 -34 -28 -3 -8 -9 -11 -14 -8 -5 3 -13 -6 -19 -20 -5 -14 -16 -26
-25 -26 -8 0 -15 -5 -15 -12 0 -6 -3 -8 -6 -5 -11 11 -64 -26 -64 -45 0 -10
-6 -18 -12 -18 -9 0 -8 -4 2 -10 9 -6 11 -10 3 -10 -8 0 -10 -7 -6 -17 6 -15
4 -16 -9 -5 -13 10 -18 10 -24 1 -4 -8 -3 -9 4 -5 16 10 15 -2 -2 -19 -7 -8
-17 -11 -21 -7 -5 4 -5 1 -1 -6 5 -8 -7 -27 -34 -53 -32 -32 -44 -38 -55 -29
-10 9 -18 7 -34 -9 -22 -22 -63 -46 -73 -43 -4 1 -5 -5 -2 -13 4 -8 1 -15 -6
-15 -6 0 -8 -4 -5 -10 3 -5 0 -10 -7 -10 -9 0 -9 -3 2 -10 11 -7 11 -10 2 -10
-7 0 -10 -5 -7 -10 4 -6 3 -9 -2 -8 -5 2 -20 -8 -33 -21 -14 -13 -18 -20 -10
-16 13 8 13 6 1 -8 -7 -9 -11 -22 -8 -29 3 -10 -35 -12 -187 -7 -105 3 -193 6
-195 7 -5 2 8 17 17 18 50 10 62 32 62 111 0 23 6 36 18 40 9 4 23 13 30 20 8
7 17 11 21 8 5 -2 9 34 10 81 2 72 6 92 28 128 29 48 76 84 119 92 30 5 57 31
48 45 -3 5 4 9 15 9 11 0 23 5 26 10 4 6 11 8 16 5 5 -4 9 5 9 18 0 13 11 37
25 53 14 16 25 32 25 35 0 3 16 23 35 45 19 21 35 45 35 52 0 6 4 12 8 12 16
0 52 37 44 46 -4 4 2 2 12 -6 11 -8 17 -10 14 -5 -10 17 5 33 34 37 15 2 30 7
34 11 4 4 15 7 25 7 10 0 24 8 31 19 9 12 31 21 67 25 30 4 60 11 66 16 7 5
16 6 20 2 5 -4 5 -1 1 6 -4 7 2 27 13 46 12 18 21 47 21 65 0 33 28 70 48 63
7 -2 11 0 10 6 -3 11 57 72 72 72 5 0 11 11 11 25 1 14 2 33 3 43 1 21 40 72
54 72 5 0 15 14 22 30 18 42 50 81 61 74 5 -3 8 0 7 7 -2 7 2 14 7 14 6 1 17
5 25 8 18 7 57 11 167 15 61 2 88 -1 106 -12z m157 -228 c0 -5 6 -6 13 -2 9 6
9 4 -1 -8 -11 -14 -10 -16 7 -11 12 3 21 1 21 -5 0 -6 9 -9 20 -7 23 4 26 -5
8 -24 -11 -10 -10 -11 3 -6 9 3 23 -3 35 -16 10 -13 13 -19 7 -15 -9 5 -12 0
-11 -17 1 -13 7 -24 14 -24 7 0 10 7 8 16 -3 9 3 1 12 -16 10 -18 21 -33 25
-33 4 0 -2 -11 -14 -24 -21 -24 -22 -24 -35 -5 -13 19 -49 18 -62 -1 -6 -9
-50 6 -50 18 0 5 -26 10 -57 11 -32 1 -59 4 -62 6 -2 3 -9 -2 -15 -10 -12 -17
-53 -28 -60 -16 -3 4 4 26 15 50 14 31 23 41 35 37 8 -3 12 -2 9 4 -3 6 4 14
17 19 13 5 30 17 38 27 13 16 13 17 0 10 -9 -4 -8 -2 2 7 10 8 15 17 11 20 -3
4 -1 7 6 7 7 0 10 4 7 9 -4 5 0 11 6 14 18 5 48 -4 48 -15z m-2764 -113 c15
-14 31 -25 35 -25 5 0 9 -7 9 -15 0 -9 7 -18 15 -21 8 -3 17 -21 21 -39 3 -19
12 -36 19 -39 8 -3 17 -25 20 -49 l7 -44 41 21 c23 11 46 27 50 34 4 7 24 19
44 27 33 14 38 14 52 -2 23 -26 22 -63 -4 -87 -36 -34 -86 -146 -65 -146 5 0
4 -15 -1 -32 -5 -18 -9 -46 -9 -61 0 -27 -32 -82 -42 -72 -2 2 -10 -5 -17 -17
-10 -16 -10 -19 1 -12 10 6 10 4 -1 -10 -8 -9 -16 -43 -18 -74 -6 -97 -9 -117
-17 -130 -4 -7 -2 -19 4 -27 7 -8 9 -15 5 -15 -4 0 0 -11 8 -24 24 -35 29 -77
12 -102 -16 -25 -16 -61 0 -68 14 -5 17 -62 6 -101 l-8 -30 -7 30 c-4 17 -11
38 -17 47 -5 10 -9 26 -9 37 0 11 -5 21 -11 23 -6 2 -12 23 -14 46 -2 24 -10
51 -18 60 -10 11 -17 48 -21 102 -8 112 -9 119 -18 114 -4 -3 -8 2 -8 11 0 9
-4 13 -10 10 -5 -3 -12 6 -16 20 -9 36 -22 31 -29 -12 -4 -21 -11 -51 -16 -66
-7 -25 -5 -33 21 -59 32 -31 35 -41 45 -128 8 -69 30 -135 54 -161 22 -23 71
-122 71 -142 0 -8 33 -46 73 -84 39 -38 86 -86 104 -106 29 -33 32 -35 38 -16
4 10 4 33 0 49 -4 16 0 48 9 75 9 25 16 68 16 95 0 54 25 130 44 130 34 -1 40
-18 41 -127 0 -59 4 -119 8 -133 6 -21 1 -29 -31 -51 -46 -32 -251 -262 -292
-329 -8 -13 -11 -12 -24 5 -8 11 -11 22 -7 25 15 10 19 130 7 178 -7 26 -31
73 -53 105 -26 36 -43 74 -47 102 -4 24 -12 47 -17 51 -10 6 -46 60 -83 124
-19 31 -21 53 -21 208 0 94 -1 168 -3 162 -2 -5 -8 -10 -13 -10 -6 0 -7 5 -3
12 4 6 -4 3 -18 -8 -14 -10 -24 -23 -21 -27 8 -14 -38 -73 -68 -86 -29 -13
-131 -12 -122 1 2 5 -1 8 -6 8 -6 0 -11 9 -11 20 0 11 -4 20 -9 20 -5 0 -13
25 -16 55 -6 43 -3 63 11 92 9 21 18 52 18 69 1 17 6 30 11 28 6 -3 25 9 43
26 18 16 42 30 52 30 29 0 50 -11 43 -23 -4 -6 -1 -7 6 -3 16 10 38 -19 47
-64 7 -34 7 -33 19 30 7 36 15 75 18 88 3 12 1 22 -4 22 -6 0 -7 5 -4 10 3 6
2 10 -4 10 -6 0 -8 7 -5 15 4 9 -1 18 -11 21 -13 5 -14 9 -3 15 10 7 10 9 0 9
-14 0 -54 79 -46 92 3 4 0 8 -6 8 -6 0 -8 5 -5 10 3 6 2 10 -3 10 -10 0 -10
-2 -18 128 -6 99 -6 103 14 109 19 5 39 37 34 55 -1 4 6 4 15 1 11 -4 14 -3 9
5 -5 9 8 12 48 12 45 0 60 -5 82 -25z m-229 -50 c0 -8 -4 -12 -9 -9 -5 3 -6
10 -3 15 9 13 12 11 12 -6z m3173 -55 c0 -5 -4 -10 -10 -10 -5 0 -10 5 -10 10
0 6 5 10 10 10 6 0 10 -4 10 -10z m-3303 -55 c0 -8 -4 -12 -9 -9 -5 3 -6 10
-3 15 9 13 12 11 12 -6z m10 -47 c-3 -8 -6 -5 -6 6 -1 11 2 17 5 13 3 -3 4
-12 1 -19z m-6 -231 c-10 -9 -11 -8 -5 6 3 10 9 15 12 12 3 -3 0 -11 -7 -18z
m2 -42 c-7 -21 -12 -19 -10 4 0 11 5 18 9 15 4 -3 5 -11 1 -19z m5065 -85 c71
-38 129 -98 163 -168 37 -78 37 -243 0 -301 -7 -11 -23 -11 -97 3 -155 29
-282 31 -428 6 -106 -18 -130 -19 -137 -8 -37 56 -37 222 0 299 43 91 119 158
219 196 24 9 68 12 127 10 80 -3 97 -7 153 -37z m-2048 -20 c3 -4 30 -25 60
-47 30 -22 62 -48 70 -58 19 -23 4 -34 -89 -65 -58 -20 -74 -22 -93 -12 -15 7
-60 11 -123 9 -131 -4 -175 12 -182 69 -6 44 48 74 169 93 27 5 52 11 55 15 9
8 126 4 133 -4z m-680 -24 c0 -2 -7 -7 -16 -10 -8 -3 -12 -2 -9 4 6 10 25 14
25 6z m1927 -81 c58 -23 83 -76 82 -171 -2 -120 8 -113 -155 -119 -158 -5
-315 -25 -442 -55 -97 -23 -93 -25 -117 54 -24 78 -20 123 13 152 36 32 140
91 205 116 123 47 326 58 414 23z m-1482 -380 c65 -38 92 -52 208 -104 23 -11
96 -38 161 -60 66 -23 125 -46 132 -52 10 -8 10 -19 0 -52 -7 -23 -18 -41 -24
-39 -7 1 -12 -2 -12 -8 0 -5 -7 -10 -15 -10 -8 0 -15 -5 -15 -10 0 -7 -26 -10
-69 -8 -38 2 -72 0 -76 -4 -4 -4 -8 -26 -8 -50 -1 -45 -17 -67 -49 -68 -10 0
-18 -4 -18 -10 0 -5 -9 -10 -21 -10 -11 0 -27 -7 -36 -15 -8 -8 -18 -13 -23
-10 -14 9 -19 -24 -9 -54 12 -34 57 -61 101 -61 15 0 28 -5 28 -11 0 -5 4 -8
9 -4 19 11 24 -65 7 -103 -9 -20 -17 -52 -18 -69 -3 -39 2 -44 -86 88 -52 78
-106 141 -208 241 -159 156 -175 170 -258 218 -70 41 -76 56 -46 122 26 59 60
84 141 102 66 16 99 41 99 77 0 23 13 19 105 -36z m2708 -87 c3 -33 2 -58 -4
-58 -5 0 -9 28 -9 62 0 75 5 73 13 -4z m-4143 -1 c-29 -15 -70 -27 -70 -21 0
7 63 33 80 34 8 0 4 -6 -10 -13z m928 -35 c4 -26 -17 -37 -53 -28 -29 7 -33
30 -7 45 27 17 57 9 60 -17z m-2221 -8 c2 -13 1 -15 -4 -4 -3 8 -11 19 -17 23
-7 6 -6 7 4 4 8 -2 16 -12 17 -23z m5773 -164 c0 -5 -5 -10 -11 -10 -5 0 -7 5
-4 10 3 6 8 10 11 10 2 0 4 -4 4 -10z m-32 -34 c-7 -8 -15 -12 -17 -11 -5 6
10 25 20 25 5 0 4 -6 -3 -14z m5 -41 c-3 -9 -8 -14 -10 -11 -3 3 -2 9 2 15 9
16 15 13 8 -4z m25 -22 c-6 -8 -14 -11 -17 -7 -3 4 -1 9 6 11 7 2 9 12 6 21
-4 14 -3 15 5 2 8 -10 8 -18 0 -27z m-5491 -248 c0 -8 -4 -12 -9 -9 -5 3 -6
10 -3 15 9 13 12 11 12 -6z m2893 -65 c12 -8 11 -10 -7 -10 -13 0 -23 5 -23
10 0 13 11 13 30 0z m2181 -203 c-26 -118 -76 -276 -95 -302 -14 -19 -15 -18
-16 20 0 22 13 78 29 125 16 47 39 129 52 182 20 82 26 95 38 84 11 -12 10
-29 -8 -109z m-4996 83 c2 -12 1 -20 -2 -16 -4 4 -8 16 -10 28 -4 28 6 18 12
-12z m2894 -48 c-35 -90 -69 -185 -67 -187 2 -1 64 -12 138 -24 157 -26 176
-35 128 -65 -58 -37 -78 -59 -89 -100 -6 -23 -21 -52 -34 -66 -13 -14 -38 -54
-55 -90 -50 -102 -61 -120 -69 -120 -22 0 -28 78 -9 109 9 15 9 23 -1 35 -15
17 -35 12 -25 -7 3 -7 -2 -3 -10 7 -9 11 -16 16 -17 10 0 -5 -12 23 -26 61
-22 59 -26 88 -27 190 -1 105 -4 125 -24 158 -28 49 -28 57 4 57 14 0 38 7 52
15 32 18 96 40 122 42 17 2 18 -2 9 -25z m-2912 -4 c-3 -8 -6 -5 -6 6 -1 11 2
17 5 13 3 -3 4 -12 1 -19z m5420 -13 c-9 -9 -20 -15 -24 -15 -4 1 -10 -7 -12
-17 -3 -16 -1 -16 15 -3 18 14 18 14 4 -4 -23 -30 -55 -60 -79 -74 -20 -12
-23 -10 -37 24 -24 56 -17 66 60 86 38 10 71 20 74 23 3 3 7 3 10 0 2 -2 -3
-11 -11 -20z m38 -45 c0 -15 -2 -26 -4 -24 -2 2 -11 -2 -20 -8 -9 -7 -13 -8
-9 -4 4 5 3 15 -2 21 -8 9 -6 14 6 19 13 5 14 9 5 20 -10 12 -9 14 6 10 12 -3
18 -14 18 -34z m-55 -186 c0 -5 -5 -3 -11 3 -14 14 -49 5 -49 -13 0 -8 -4 -14
-10 -14 -5 0 -10 11 -10 24 0 19 4 23 19 19 10 -3 22 0 26 6 6 11 35 -9 35
-25z m-2 -59 c-3 -3 -9 2 -12 12 -6 14 -5 15 5 6 7 -7 10 -15 7 -18z m-495
-67 c-4 -7 -8 -18 -9 -24 -1 -6 -9 -24 -17 -40 l-16 -29 -1 28 c0 20 4 26 13
21 9 -5 9 -4 0 6 -10 11 -9 17 5 31 20 21 37 25 25 7z m479 -62 c7 4 8 2 4 -5
-11 -17 -26 -3 -25 22 2 22 2 22 6 -1 3 -13 9 -19 15 -16z m-3765 -128 c78
-82 290 -137 595 -154 l128 -7 6 -35 c11 -57 -4 -152 -35 -217 -125 -265 -481
-361 -729 -195 -163 109 -237 310 -187 503 21 81 50 132 108 195 l52 54 17
-57 c9 -32 29 -71 45 -87z m-525 27 c57 -87 81 -177 76 -278 -6 -104 -38 -175
-119 -261 -95 -102 -219 -156 -359 -156 -278 0 -490 195 -490 450 l0 67 158 6
c295 11 517 68 592 153 16 19 36 55 42 79 l12 45 24 -23 c14 -12 42 -49 64
-82z m3737 7 c-17 -32 -49 -81 -72 -110 -22 -29 -38 -54 -36 -56 7 -6 202 -86
211 -86 4 0 8 15 8 33 0 17 5 90 11 160 l12 128 76 -7 c42 -3 80 -9 84 -11 5
-3 -3 -17 -17 -32 -25 -27 -26 -30 -15 -79 15 -64 3 -81 -68 -101 -26 -7 -54
-14 -60 -17 -13 -3 -18 -36 -7 -47 3 -3 19 -1 36 5 26 9 33 7 59 -18 39 -38
39 -84 -2 -144 -27 -39 -30 -50 -23 -85 12 -65 9 -141 -7 -159 -27 -29 -35
-41 -42 -58 -3 -10 -12 -18 -19 -18 -8 0 -147 45 -310 100 -163 55 -304 100
-312 100 -33 0 -14 37 44 88 33 29 60 59 60 65 0 22 56 72 125 112 67 39 146
117 190 185 13 19 32 45 44 57 12 12 21 26 21 31 0 13 22 32 32 26 5 -3 -5
-31 -23 -62z m501 8 c0 -5 -4 -10 -10 -10 -5 0 -10 5 -10 10 0 6 5 10 10 10 6
0 10 -4 10 -10z m-1996 -148 c25 -34 46 -66 46 -71 0 -5 6 -11 13 -14 6 -2
-23 -7 -66 -11 -64 -6 -84 -4 -120 12 -62 28 -73 44 -51 80 18 31 87 72 116
68 9 -1 37 -30 62 -64z m2093 -27 c-4 -8 -3 -16 2 -19 7 -4 6 -135 -1 -141 -2
-1 -11 6 -21 15 -14 13 -15 20 -6 26 8 4 10 3 5 -4 -4 -7 -2 -12 3 -12 17 0
13 27 -5 34 -15 6 -15 8 0 32 10 14 16 33 15 42 -2 26 0 42 7 42 3 0 4 -7 1
-15z m-26 -47 c-11 -11 -13 -10 -7 0 4 7 2 21 -5 30 -12 15 -11 15 6 0 16 -15
17 -20 6 -30z m-1821 -113 c41 -16 80 -32 86 -37 6 -5 12 -39 13 -77 1 -67 0
-69 -32 -94 -32 -24 -110 -136 -207 -294 -24 -39 -52 -74 -62 -76 -10 -3 -18
-1 -18 4 0 21 119 197 208 308 19 22 29 41 24 41 -5 0 -56 -15 -113 -34 -57
-19 -131 -42 -164 -50 -56 -15 -61 -14 -73 2 -38 51 -39 52 -122 52 -79 0 -81
0 -99 31 -18 29 -18 34 -5 54 20 31 111 61 214 71 75 8 83 11 135 59 54 48 96
73 123 71 9 -1 51 -14 92 -31z m1740 -70 c0 -12 -19 -12 -23 0 -4 9 -1 12 9 8
7 -3 14 -7 14 -8z m47 -42 c-3 -10 -5 -4 -5 12 0 17 2 24 5 18 2 -7 2 -21 0
-30z m-140 -38 c0 -8 -4 -12 -9 -9 -5 3 -6 10 -3 15 9 13 12 11 12 -6z m-816
-153 c19 -32 28 -57 22 -63 -5 -5 -26 27 -51 79 -44 89 -27 80 29 -16z m750
-29 c13 -16 12 -17 -3 -4 -10 7 -18 15 -18 17 0 8 8 3 21 -13z m-829 -86 c-9
-18 -11 -14 -11 28 1 46 1 48 11 22 7 -20 7 -35 0 -50z m-685 41 c-3 -8 -6 -5
-6 6 -1 11 2 17 5 13 3 -3 4 -12 1 -19z m1600 -20 c-3 -8 -6 -5 -6 6 -1 11 2
17 5 13 3 -3 4 -12 1 -19z m-2309 -11 c11 -14 -44 -218 -62 -229 -6 -4 -24 -7
-41 -6 l-30 1 0 91 c0 50 -4 105 -9 123 -8 30 -6 32 20 35 47 5 112 -3 122
-15z m693 -28 c-6 -16 -10 -18 -10 -7 -1 22 12 55 16 42 2 -6 -1 -22 -6 -35z
m1509 37 c0 -2 -8 -10 -17 -17 -16 -13 -17 -12 -4 4 13 16 21 21 21 13z m-20
-83 c0 -45 -6 -40 -14 10 -4 25 -2 36 4 32 5 -3 10 -22 10 -42z m135 -21 c2
-11 -4 -27 -13 -34 -14 -11 -15 -11 -9 5 4 10 7 28 7 39 0 25 9 19 15 -10z
m-712 -64 c43 -89 55 -125 47 -137 -7 -12 -17 5 -55 94 -43 100 -36 134 8 43z
m-1967 -54 c-39 -127 -46 -142 -57 -122 -7 13 -4 30 10 60 10 24 29 67 41 96
13 29 24 51 26 49 2 -2 -7 -39 -20 -83z m1004 -155 c-11 -90 -17 -163 -39
-434 -16 -194 -30 -328 -36 -333 -8 -9 -6 175 5 292 5 61 14 170 20 241 19
229 39 349 56 332 3 -3 0 -47 -6 -98z m794 -8 c3 -36 6 -130 6 -208 0 -114 -3
-143 -14 -143 -17 0 -26 90 -26 276 0 112 3 141 14 141 9 0 15 -20 20 -66z
m-1067 37 c-3 -7 -47 -102 -96 -210 -88 -192 -151 -356 -151 -394 1 -25 37
-66 146 -162 140 -124 164 -148 164 -165 0 -14 -110 -137 -122 -137 -3 0 -25
-19 -49 -42 -24 -24 -77 -72 -117 -107 -40 -35 -75 -74 -78 -86 -3 -12 1 -47
9 -78 8 -32 13 -57 11 -57 -9 0 -44 82 -50 117 -6 37 -3 41 48 88 112 104 134
121 146 117 7 -2 10 2 6 12 -4 9 -1 16 6 16 6 0 28 17 48 38 20 21 46 41 56
45 10 4 16 10 13 14 -4 3 3 17 14 32 l21 26 -79 69 c-157 140 -233 222 -233
253 0 84 182 518 251 597 23 27 45 35 36 14z m1358 -118 c9 -25 18 -52 20 -62
2 -9 11 -30 20 -48 9 -17 14 -38 11 -46 -3 -8 -2 -14 3 -14 9 0 48 -98 91
-228 21 -67 27 -99 20 -111 -11 -22 -165 -168 -254 -243 -36 -29 -67 -58 -69
-63 -3 -6 18 -41 45 -78 28 -37 49 -70 46 -72 -6 -7 -138 127 -138 140 0 13
52 63 195 186 61 51 118 103 128 114 24 28 18 78 -26 195 -82 222 -109 296
-111 310 -1 9 -6 22 -11 29 -5 10 -4 12 3 7 7 -4 12 -2 12 3 0 6 -5 11 -11 11
-5 0 -7 5 -4 11 9 14 11 12 30 -41z m-2357 -207 c6 -11 23 -17 48 -17 22 -1
42 -5 47 -11 4 -7 10 -6 15 2 4 6 23 14 42 17 59 11 275 14 281 4 3 -5 2 -28
-1 -51 -7 -37 -122 -447 -137 -487 -3 -8 -7 -22 -9 -30 -2 -8 -28 -116 -58
-240 -30 -124 -73 -311 -97 -417 -40 -182 -59 -228 -59 -144 0 21 -4 73 -9
117 -6 43 -15 129 -21 189 -33 317 -94 502 -243 743 -42 68 -56 82 -72 78 -11
-2 -72 -23 -135 -45 -261 -90 -640 -134 -800 -91 -27 7 -20 8 31 3 37 -3 124
0 195 6 378 34 633 131 893 340 35 28 67 51 72 51 4 0 12 -8 17 -17z m2072
-355 c0 -155 -3 -278 -6 -275 -8 8 -26 536 -18 548 20 33 24 -15 24 -273z
m570 -318 c0 -5 -2 -10 -4 -10 -3 0 -8 5 -11 10 -3 6 -1 10 4 10 6 0 11 -4 11
-10z"/>
<path d="M3750 7075 c0 -2 7 -8 15 -15 12 -10 15 -10 15 2 0 8 -7 15 -15 15
-8 0 -15 -1 -15 -2z"/>
<path d="M3756 5588 c3 -5 10 -6 15 -3 13 9 11 12 -6 12 -8 0 -12 -4 -9 -9z"/>
<path d="M4446 5888 c3 -5 10 -6 15 -3 13 9 11 12 -6 12 -8 0 -12 -4 -9 -9z"/>
<path d="M7046 3215 c-3 -8 -1 -15 3 -15 5 0 11 7 15 15 3 8 1 15 -3 15 -5 0
-11 -7 -15 -15z"/>
<path d="M3906 1639 c3 -5 12 -9 21 -9 19 0 9 13 -12 16 -8 1 -13 -2 -9 -7z"/>
<path d="M3950 1628 c0 -4 9 -8 21 -8 11 0 18 -4 15 -9 -5 -7 10 -13 73 -27 8
-1 17 -8 21 -14 6 -9 9 -9 13 1 4 11 6 11 6 1 1 -19 27 -42 37 -34 5 4 2 -1
-5 -10 -7 -10 -12 -18 -10 -19 42 -9 56 -8 56 6 0 8 -4 15 -9 15 -4 0 -8 7 -8
15 0 8 -9 19 -20 25 -13 7 -20 7 -20 1 0 -6 -15 6 -34 25 -28 29 -41 35 -85
37 -28 2 -51 0 -51 -5z"/>
<path d="M3326 7331 c-3 -5 2 -15 12 -22 15 -12 16 -12 5 2 -7 9 -10 19 -6 22
3 4 4 7 0 7 -3 0 -8 -4 -11 -9z"/>
<path d="M3313 7295 c0 -8 4 -12 9 -9 5 3 6 10 3 15 -9 13 -12 11 -12 -6z"/>
<path d="M3291 7243 c0 -12 2 -14 6 -4 5 11 7 11 15 0 8 -12 9 -12 6 0 -6 22
-28 25 -27 4z"/>
<path d="M4065 7119 c-4 -6 -5 -12 -2 -15 2 -3 7 2 10 11 7 17 1 20 -8 4z"/>
<path d="M4085 7111 c-3 -5 -2 -12 3 -15 5 -3 9 1 9 9 0 17 -3 19 -12 6z"/>
<path d="M3796 7098 c3 -5 10 -6 15 -3 13 9 11 12 -6 12 -8 0 -12 -4 -9 -9z"/>
<path d="M3826 7092 c-3 -5 1 -9 9 -9 8 0 12 4 9 9 -3 4 -7 8 -9 8 -2 0 -6 -4
-9 -8z"/>
<path d="M4346 7032 c-7 -12 0 -47 9 -47 4 0 9 8 11 18 1 10 -2 14 -9 10 -6
-4 -8 0 -4 10 7 18 2 23 -7 9z"/>
<path d="M2137 6859 c7 -7 15 -10 18 -7 3 3 -2 9 -12 12 -14 6 -15 5 -6 -5z"/>
<path d="M2144 6824 c1 -8 4 -15 7 -16 2 -2 3 -1 2 1 -2 2 2 9 7 16 7 8 5 12
-4 12 -8 0 -13 -6 -12 -13z"/>
<path d="M2180 6830 c0 -5 0 -12 0 -15 0 -12 14 -4 16 10 1 8 -2 15 -7 15 -5
0 -9 -4 -9 -10z"/>
<path d="M2096 6791 c-3 -5 2 -15 12 -22 15 -12 16 -12 5 2 -7 9 -10 19 -6 22
3 4 4 7 0 7 -3 0 -8 -4 -11 -9z"/>
<path d="M2053 6773 c0 -9 4 -10 14 -2 7 6 13 12 13 14 0 1 -6 2 -13 2 -8 0
-14 -6 -14 -14z"/>
<path d="M5690 6770 c0 -5 5 -10 11 -10 5 0 7 5 4 10 -3 6 -8 10 -11 10 -2 0
-4 -4 -4 -10z"/>
<path d="M2000 6745 c5 -7 6 -16 2 -21 -4 -5 -3 -5 2 -1 15 12 15 34 0 34 -9
0 -11 -4 -4 -12z"/>
<path d="M1966 6742 c-3 -5 1 -9 9 -9 8 0 12 4 9 9 -3 4 -7 8 -9 8 -2 0 -6 -4
-9 -8z"/>
<path d="M2195 6730 c3 -5 8 -10 11 -10 2 0 4 5 4 10 0 6 -5 10 -11 10 -5 0
-7 -4 -4 -10z"/>
<path d="M1885 6691 c-3 -5 -1 -12 5 -16 6 -4 7 -12 3 -18 -4 -7 0 -6 10 2 20
16 22 22 5 19 -7 -2 -12 3 -10 10 2 14 -4 16 -13 3z"/>
<path d="M2040 6696 c0 -2 8 -10 18 -17 15 -13 16 -12 3 4 -13 16 -21 21 -21
13z"/>
<path d="M1880 6601 c0 -11 4 -22 9 -25 4 -3 6 6 3 19 -5 30 -12 33 -12 6z"/>
<path d="M2094 6609 c-3 -6 -17 -9 -29 -6 -17 3 -25 -1 -28 -15 -3 -10 -1 -21
4 -24 5 -3 6 -11 2 -17 -4 -7 0 -6 10 2 9 7 17 10 17 6 0 -5 9 0 19 9 11 10
19 26 18 37 -1 22 -3 23 -13 8z m-3 -33 c-13 -15 -35 -16 -48 -1 -4 4 -3 5 4
1 6 -3 14 -2 18 4 4 6 11 8 16 5 5 -4 9 -1 9 6 0 7 3 9 6 6 4 -4 2 -13 -5 -21z"/>
<path d="M1982 6580 c0 -14 2 -19 5 -12 2 6 2 18 0 25 -3 6 -5 1 -5 -13z"/>
<path d="M1743 6549 c-2 -23 3 -25 10 -4 4 8 3 16 -1 19 -4 3 -9 -4 -9 -15z"/>
<path d="M2001 6514 c0 -11 3 -14 6 -6 3 7 2 16 -1 19 -3 4 -6 -2 -5 -13z"/>
<path d="M1740 6510 c13 -9 7 -14 -12 -11 -4 0 -5 -6 -1 -14 5 -13 7 -13 18 2
14 19 11 33 -8 33 -7 0 -6 -4 3 -10z"/>
<path d="M1486 6214 c-11 -7 -22 -12 -25 -10 -4 3 -7 -9 -7 -25 -2 -28 -1 -29
16 -14 10 9 21 15 26 14 16 -4 44 13 38 22 -3 5 0 9 7 9 17 0 5 10 -17 14 -11
2 -28 -2 -38 -10z m33 -17 c-8 -13 -14 -16 -21 -9 -13 13 -4 29 16 29 12 0 13
-5 5 -20z"/>
<path d="M1256 5915 c-3 -8 -1 -15 4 -15 6 0 10 7 10 15 0 8 -2 15 -4 15 -2 0
-6 -7 -10 -15z"/>
<path d="M1185 5628 c2 -18 -1 -39 -8 -47 -9 -11 -9 -13 0 -8 6 4 14 3 18 -3
3 -5 -1 -10 -10 -10 -11 0 -15 -5 -12 -14 3 -7 1 -18 -5 -24 -8 -8 -5 -9 11
-5 19 5 21 2 20 -33 l-2 -39 -7 35 -8 35 1 -40 c1 -22 7 -40 12 -40 15 0 23
124 9 136 -6 5 -10 25 -7 43 2 19 -1 37 -6 41 -6 3 -8 -7 -6 -27z m15 -88 c0
-5 -2 -10 -4 -10 -3 0 -8 5 -11 10 -3 6 -1 10 4 10 6 0 11 -4 11 -10z"/>
<path d="M7111 3984 c0 -11 3 -14 6 -6 3 7 2 16 -1 19 -3 4 -6 -2 -5 -13z"/>
<path d="M7085 3520 c-4 -6 -11 -7 -17 -4 -6 4 -6 -2 1 -15 14 -25 15 -26 32
-3 13 15 12 16 -3 3 -20 -15 -25 -2 -6 17 7 7 9 12 6 12 -4 0 -10 -5 -13 -10z"/>
<path d="M7096 3439 c2 -4 -1 -11 -7 -15 -8 -5 -4 -13 12 -26 21 -16 22 -20 9
-27 -9 -6 -17 -25 -18 -45 -3 -36 11 -55 24 -35 4 8 3 9 -4 5 -8 -5 -12 2 -11
21 0 23 2 25 8 9 7 -19 8 -19 13 2 3 12 3 21 -1 20 -20 -2 -20 4 0 22 13 10
18 19 12 20 -7 0 -13 5 -13 11 0 5 6 7 13 3 6 -4 4 2 -6 13 -9 11 -15 22 -12
25 3 2 -2 5 -10 5 -8 0 -12 -4 -9 -8z m19 -19 c3 -5 1 -10 -4 -10 -6 0 -11 5
-11 10 0 6 2 10 4 10 3 0 8 -4 11 -10z"/>
<path d="M7039 3118 c-7 -24 -7 -118 0 -122 5 -4 7 3 4 14 -3 11 -2 28 2 37
12 26 13 63 3 69 -4 3 -8 4 -9 2z"/>
<path d="M6939 2806 c0 -1 -2 -19 -5 -40 -4 -40 3 -47 9 -9 1 12 8 27 15 35 9
12 9 15 -3 15 -8 0 -15 -1 -16 -1z"/>
<path d="M6870 2521 c0 -6 4 -12 8 -15 5 -3 9 1 9 9 0 8 -4 15 -9 15 -4 0 -8
-4 -8 -9z"/>
</g>
</svg>
